<?xml version="1.0" encoding="utf-8"?>
<!-- Generator: Adobe Illustrator 21.1.0, SVG Export Plug-In . SVG Version: 6.00 Build 0)  -->
<svg version="1.1" id="Capa_1" xmlns="http://www.w3.org/2000/svg" xmlns:xlink="http://www.w3.org/1999/xlink" x="0px" y="0px"
	 viewBox="0 0 60 60" style="enable-background:new 0 0 60 60;" xml:space="preserve">
<style type="text/css">
	.st0{fill:#ED174B;}
</style>
<g>
	<path class="st0" d="M38.9,0H6.5v60h47V14.6L38.9,0z M39.5,3.4L50.1,14H39.5V3.4z M8.5,58V2h29v14h14v42H8.5z"/>
	<path class="st0" d="M16.5,17h9c0.6,0,1-0.4,1-1c0-0.6-0.4-1-1-1h-9c-0.6,0-1,0.4-1,1C15.5,16.6,15.9,17,16.5,17z"/>
	<path class="st0" d="M33.5,37h-17c-0.6,0-1,0.4-1,1s0.4,1,1,1h17c0.6,0,1-0.4,1-1S34.1,37,33.5,37z"/>
	<path class="st0" d="M43.5,30h-7c-0.6,0-1,0.4-1,1s0.4,1,1,1h7c0.6,0,1-0.4,1-1S44.1,30,43.5,30z"/>
	<path class="st0" d="M16.5,25h5c0.6,0,1-0.4,1-1s-0.4-1-1-1h-5c-0.6,0-1,0.4-1,1S15.9,25,16.5,25z"/>
	<path class="st0" d="M31.5,25h7c0.6,0,1-0.4,1-1s-0.4-1-1-1h-7c-0.6,0-1,0.4-1,1S30.9,25,31.5,25z"/>
	<path class="st0" d="M25.5,24c0,0.3,0.1,0.5,0.3,0.7c0.2,0.2,0.4,0.3,0.7,0.3s0.5-0.1,0.7-0.3c0.2-0.2,0.3-0.5,0.3-0.7
		c0-0.3-0.1-0.5-0.3-0.7c-0.4-0.4-1-0.4-1.4,0C25.6,23.5,25.5,23.7,25.5,24z"/>
	<path class="st0" d="M21.5,30c-0.6,0-1,0.4-1,1s0.4,1,1,1h10c0.6,0,1-0.4,1-1s-0.4-1-1-1H21.5z"/>
	<path class="st0" d="M16.5,32c0.3,0,0.5-0.1,0.7-0.3c0.2-0.2,0.3-0.5,0.3-0.7c0-0.3-0.1-0.5-0.3-0.7c-0.4-0.4-1-0.4-1.4,0
		c-0.2,0.2-0.3,0.4-0.3,0.7c0,0.3,0.1,0.5,0.3,0.7C16,31.9,16.2,32,16.5,32z"/>
	<path class="st0" d="M43.5,44h-7c-0.6,0-1,0.4-1,1s0.4,1,1,1h7c0.6,0,1-0.4,1-1S44.1,44,43.5,44z"/>
	<path class="st0" d="M31.5,44h-10c-0.6,0-1,0.4-1,1s0.4,1,1,1h10c0.6,0,1-0.4,1-1S32.1,44,31.5,44z"/>
	<path class="st0" d="M15.8,44.3c-0.2,0.2-0.3,0.4-0.3,0.7c0,0.3,0.1,0.5,0.3,0.7c0.2,0.2,0.4,0.3,0.7,0.3c0.3,0,0.5-0.1,0.7-0.3
		c0.2-0.2,0.3-0.5,0.3-0.7c0-0.3-0.1-0.5-0.3-0.7C16.8,43.9,16.2,43.9,15.8,44.3z"/>
	<path class="st0" d="M42.8,23.3c-0.2,0.2-0.3,0.4-0.3,0.7c0,0.3,0.1,0.5,0.3,0.7c0.2,0.2,0.5,0.3,0.7,0.3s0.5-0.1,0.7-0.3
		c0.2-0.2,0.3-0.5,0.3-0.7c0-0.3-0.1-0.5-0.3-0.7C43.8,22.9,43.2,22.9,42.8,23.3z"/>
	<path class="st0" d="M39.2,38.7c0.2-0.2,0.3-0.5,0.3-0.7c0-0.3-0.1-0.5-0.3-0.7c-0.4-0.4-1-0.4-1.4,0c-0.2,0.2-0.3,0.4-0.3,0.7
		c0,0.3,0.1,0.5,0.3,0.7c0.2,0.2,0.4,0.3,0.7,0.3S39,38.9,39.2,38.7z"/>
	<path class="st0" d="M42.8,37.3c-0.2,0.2-0.3,0.4-0.3,0.7c0,0.3,0.1,0.5,0.3,0.7c0.2,0.2,0.4,0.3,0.7,0.3s0.5-0.1,0.7-0.3
		c0.2-0.2,0.3-0.5,0.3-0.7c0-0.3-0.1-0.5-0.3-0.7C43.8,36.9,43.2,36.9,42.8,37.3z"/>
</g>
</svg>
