<?xml version="1.0" encoding="UTF-8"?>
<svg width="40px" height="40px" viewBox="0 0 40 40" version="1.1" xmlns="http://www.w3.org/2000/svg" xmlns:xlink="http://www.w3.org/1999/xlink">
    <!-- Generator: Sketch 50.2 (55047) - http://www.bohemiancoding.com/sketch -->
    <title>Google + Copy</title>
    <desc>Created with Sketch.</desc>
    <defs></defs>
    <g id="Page-1" stroke="none" stroke-width="1" fill="none" fill-rule="evenodd">
        <g id="Homepage" transform="translate(-1200.000000, -6233.000000)" fill="#FFFFFF">
            <g id="Footer" transform="translate(0.000000, 6127.000000)">
                <g id="Social" transform="translate(1050.000000, 106.000000)">
                    <g id="Google-+-Copy" transform="translate(150.000000, 0.000000)">
                        <path d="M0,20 C0,8.95430446 8.95430446,0 20,0 C31.0456955,0 40,8.95430446 40,20 C40,31.0456955 31.0456955,40 20,40 C8.95430446,40 0,31.0456955 0,20 Z M16.3400236,19.4285714 L16.3400236,21.6 L19.9439066,21.6 C19.7986619,22.5319048 18.8545717,24.332381 16.3400236,24.332381 C14.1704316,24.332381 12.4002624,22.5409524 12.4002624,20.3333333 C12.4002624,18.1257143 14.1704316,16.3342857 16.3400236,16.3342857 C17.5746032,16.3342857 18.4006821,16.8590476 18.8727273,17.3114286 L20.5975075,15.6557143 C19.4900171,14.6242857 18.0557261,14 16.3400236,14 C12.8269185,14 9.98556999,16.8319048 9.98556999,20.3333333 C9.98556999,23.8347619 12.8269185,26.6666667 16.3400236,26.6666667 C20.0074511,26.6666667 22.4402991,24.0971429 22.4402991,20.4780952 C22.4402991,20.0619048 22.3949101,19.7452381 22.3404434,19.4285714 L16.3400236,19.4285714 Z M29.95671,19.4285714 L28.1411518,19.4285714 L28.1411518,17.6190476 L26.3255936,17.6190476 L26.3255936,19.4285714 L24.5100354,19.4285714 L24.5100354,21.2380952 L26.3255936,21.2380952 L26.3255936,23.047619 L28.1411518,23.047619 L28.1411518,21.2380952 L29.95671,21.2380952 L29.95671,19.4285714 Z" id="Combined-Shape"></path>
                    </g>
                </g>
            </g>
        </g>
    </g>
</svg>