<?xml version="1.0" encoding="utf-8"?>
<!-- Generator: Adobe Illustrator 21.1.0, SVG Export Plug-In . SVG Version: 6.00 Build 0)  -->
<svg version="1.1" id="Capa_1" xmlns="http://www.w3.org/2000/svg" xmlns:xlink="http://www.w3.org/1999/xlink" x="0px" y="0px"
	 viewBox="0 0 59 42" style="enable-background:new 0 0 59 42;" xml:space="preserve">
<style type="text/css">
	.st0{fill:#ED174B;}
</style>
<g>
	<path class="st0" d="M10.4,1.7c0.4-0.4,0.4-1,0-1.4s-1-0.4-1.4,0C-2.3,11.6-2.3,30,9,41.3c0.2,0.2,0.5,0.3,0.7,0.3s0.5-0.1,0.7-0.3
		c0.4-0.4,0.4-1,0-1.4C-0.1,29.4-0.1,12.2,10.4,1.7z"/>
	<path class="st0" d="M50,0.3c-0.4-0.4-1-0.4-1.4,0s-0.4,1,0,1.4c5.1,5.1,7.9,11.9,7.9,19.1s-2.8,14-7.9,19.1c-0.4,0.4-0.4,1,0,1.4
		c0.2,0.2,0.5,0.3,0.7,0.3s0.5-0.1,0.7-0.3c5.5-5.5,8.5-12.8,8.5-20.5S55.5,5.8,50,0.3z"/>
	<path class="st0" d="M14.7,5.9c0.4-0.4,0.4-1,0-1.4s-1-0.4-1.4,0c-9,9-9,23.6,0,32.5c0.2,0.2,0.5,0.3,0.7,0.3s0.5-0.1,0.7-0.3
		c0.4-0.4,0.4-1,0-1.4C6.5,27.5,6.5,14.1,14.7,5.9z"/>
	<path class="st0" d="M45.8,4.5c-0.4-0.4-1-0.4-1.4,0s-0.4,1,0,1.4c8.2,8.2,8.2,21.5,0,29.7c-0.4,0.4-0.4,1,0,1.4
		c0.2,0.2,0.5,0.3,0.7,0.3s0.5-0.1,0.7-0.3C54.7,28.1,54.7,13.5,45.8,4.5z"/>
	<path class="st0" d="M18.9,8.8c-0.4-0.4-1-0.4-1.4,0c-3.2,3.2-5,7.5-5,12s1.8,8.8,5,12c0.2,0.2,0.5,0.3,0.7,0.3s0.5-0.1,0.7-0.3
		c0.4-0.4,0.4-1,0-1.4C13,25.6,13,16,18.9,10.2C19.3,9.8,19.3,9.2,18.9,8.8z"/>
	<path class="st0" d="M41.5,8.8c-0.4-0.4-1-0.4-1.4,0s-0.4,1,0,1.4c5.8,5.8,5.8,15.4,0,21.2c-0.4,0.4-0.4,1,0,1.4
		c0.2,0.2,0.5,0.3,0.7,0.3s0.5-0.1,0.7-0.3c3.2-3.2,5-7.5,5-12S44.7,12,41.5,8.8z"/>
	<path class="st0" d="M30.5,27.9c3.4-0.5,6-3.4,6-6.9c0-3.9-3.1-7-7-7c-3.9,0-7,3.1-7,7c0,3.5,2.6,6.4,6,6.9"/>
</g>
</svg>
